<?xml version="1.0" encoding="utf-8"?>
<!-- Generator: Adobe Illustrator 24.0.1, SVG Export Plug-In . SVG Version: 6.00 Build 0)  -->
<svg version="1.1" id="图层_1" xmlns="http://www.w3.org/2000/svg" xmlns:xlink="http://www.w3.org/1999/xlink" x="0px" y="0px"
	 viewBox="0 0 200 64" style="enable-background:new 0 0 200 64;" xml:space="preserve">
<style type="text/css">
	.st0{fill:#171C61;}
</style>
<g>
	<g>
		<path class="st0" d="M69,17.69c1.08,6.69,2.16,13.4,3.24,20.11c0.04,0,0.08,0,0.11,0c1.08-6.71,2.17-13.42,3.25-20.16
			c0.18-0.02,7.02-0.03,10.29-0.05c0.49,0,0.65,0.11,0.66,0.64c0.03,3.21,0.1,6.42,0.17,9.63c0.07,3.52,0.15,7.04,0.23,10.55
			c0.04,1.61,0.08,3.23,0.12,4.84c0.01,0.31,0,0.61,0,0.96c-2.24,0-4.42,0-6.74,0c0-7.91,0-15.81,0-23.71
			c-0.07,0-0.15-0.01-0.22-0.01c-1.47,7.91-2.94,15.81-4.42,23.77c-1.1,0-2.16,0-3.21,0c-1.04,0-2.08-0.02-3.12,0.01
			c-0.37,0.01-0.5-0.12-0.57-0.46c-0.54-2.97-1.09-5.93-1.64-8.89c-0.87-4.68-1.74-9.37-2.61-14.05c-0.02-0.12-0.06-0.25-0.1-0.37
			c-0.06,0-0.12,0.01-0.18,0.01c0,7.9,0,15.8,0,23.72c-2.33,0-4.52,0-6.75,0c0-0.55-0.01-1.08,0-1.61c0.06-2.88,0.12-5.77,0.18-8.65
			c0.11-4.77,0.21-9.54,0.32-14.3c0.01-0.56,0-1.12,0.04-1.67c0.01-0.14,0.22-0.38,0.34-0.38c3.48-0.01,6.97,0,10.45,0.01
			C68.88,17.63,68.9,17.65,69,17.69z"/>
		<path class="st0" d="M144.79,17.78c0.17-0.01,0.3-0.03,0.43-0.03c2.98,0,5.97,0.01,8.95-0.01c0.41,0,0.55,0.14,0.66,0.51
			c1.92,6.62,3.85,13.23,5.79,19.84c0.04,0.12,0.09,0.24,0.23,0.35c-0.12-6.86-0.24-13.73-0.36-20.66c0.22-0.01,0.43-0.04,0.63-0.04
			c1.83,0,3.66,0.01,5.48-0.01c0.42,0,0.56,0.11,0.56,0.55c-0.01,8.41-0.01,16.82-0.01,25.23c0,0.17-0.02,0.34-0.03,0.55
			c-0.21,0.01-0.4,0.03-0.59,0.03c-2.77,0-5.54-0.01-8.31,0.01c-0.48,0-0.65-0.16-0.78-0.6c-2.02-6.7-4.06-13.4-6.1-20.1
			c-0.07-0.23-0.15-0.46-0.34-0.68c0.12,7.09,0.24,14.19,0.36,21.33c-2.22,0-4.38,0-6.57,0C144.79,35.31,144.79,26.58,144.79,17.78z
			"/>
		<path class="st0" d="M130.63,17.23c2.3,0,4.52,0,6.8,0c0,0.23,0,0.42,0,0.61c0,6.2,0.02,12.39-0.03,18.59
			c-0.01,1.19-0.17,2.43-0.5,3.57c-0.58,2.01-2.07,3.28-4.02,3.89c-3.37,1.07-6.79,1.11-10.11-0.18c-2.52-0.98-3.86-2.97-3.98-5.64
			c-0.13-2.78-0.09-5.58-0.1-8.36c-0.01-3.96,0-7.93-0.01-11.89c0-0.46,0.1-0.64,0.6-0.63c1.89,0.03,3.77,0.01,5.66,0.01
			c0.15,0,0.3,0.02,0.55,0.03c0,0.28,0,0.54,0,0.8c0,6.37,0,12.74,0,19.11c0,0.79,0.17,1.49,0.79,2.03
			c0.84,0.73,1.82,0.79,2.82,0.45c0.93-0.31,1.41-1.02,1.5-1.99c0.04-0.38,0.05-0.77,0.05-1.15c0-6.12,0-12.24,0-18.36
			C130.63,17.82,130.63,17.54,130.63,17.23z"/>
		<path class="st0" d="M100.65,35.41c0,0.69,0.04,1.42-0.01,2.14c-0.13,2.21,1.61,2.92,3.27,2.63c1.83-0.32,2.62-2.61,1.47-4.18
			c-0.77-1.06-1.88-1.69-2.97-2.34c-1.88-1.13-3.81-2.18-5.63-3.39c-1.42-0.94-2.53-2.22-2.88-3.96c-0.47-2.28-0.33-4.49,1.07-6.45
			c1.06-1.49,2.61-2.24,4.34-2.63c2.69-0.6,5.38-0.61,8.04,0.14c3.03,0.85,4.59,2.95,4.61,6.1c0,0.59,0,1.19,0,1.83
			c-2.21,0-4.39,0-6.67,0c0-0.63,0.04-1.24-0.01-1.85c-0.12-1.37-1.09-2.19-2.46-2.11c-0.96,0.05-1.81,0.36-2.14,1.35
			c-0.34,1.02-0.35,2.07,0.58,2.8c0.95,0.74,1.97,1.39,3,2.02c1.66,1.01,3.38,1.9,5.01,2.95c2.42,1.56,3.51,3.83,3.31,6.72
			c-0.11,1.6-0.24,3.19-1.18,4.57c-1.14,1.68-2.82,2.5-4.74,2.91c-2.85,0.61-5.69,0.58-8.47-0.38c-2.97-1.03-4.63-3.37-4.69-6.51
			c-0.01-0.69-0.02-1.39,0.02-2.08c0.01-0.14,0.21-0.39,0.33-0.39c2.21-0.02,4.42,0,6.64,0.01
			C100.53,35.32,100.56,35.35,100.65,35.41z"/>
		<path class="st0" d="M14.21,35.41c0,0.69,0.04,1.42-0.01,2.14c-0.13,2.21,1.61,2.92,3.27,2.63c1.83-0.32,2.62-2.61,1.47-4.18
			c-0.77-1.06-1.88-1.69-2.97-2.34c-1.88-1.13-3.81-2.18-5.63-3.39c-1.42-0.94-2.53-2.22-2.88-3.96C7,24.03,7.13,21.82,8.53,19.86
			c1.06-1.49,2.61-2.24,4.34-2.63c2.69-0.6,5.38-0.61,8.04,0.14c3.03,0.85,4.59,2.95,4.61,6.1c0,0.59,0,1.19,0,1.83
			c-2.21,0-4.39,0-6.67,0c0-0.63,0.04-1.24-0.01-1.85c-0.12-1.37-1.09-2.19-2.46-2.11c-0.96,0.05-1.81,0.36-2.14,1.35
			c-0.34,1.02-0.35,2.07,0.58,2.8c0.95,0.74,1.97,1.39,3,2.02c1.66,1.01,3.38,1.9,5.01,2.95c2.42,1.56,3.51,3.83,3.31,6.72
			c-0.11,1.6-0.24,3.19-1.18,4.57c-1.14,1.68-2.82,2.5-4.74,2.91c-2.85,0.61-5.69,0.58-8.47-0.38c-2.97-1.03-4.63-3.37-4.69-6.51
			c-0.01-0.69-0.02-1.39,0.02-2.08c0.01-0.14,0.21-0.39,0.33-0.39c2.21-0.02,4.42,0,6.64,0.01C14.08,35.32,14.11,35.35,14.21,35.41z
			"/>
		<path class="st0" d="M180.73,37.51c0.01,1.25,0.58,2.08,1.64,2.45c1.21,0.42,2.67,0.11,3.32-0.79c0.27-0.37,0.46-0.87,0.48-1.32
			c0.03-0.76,0.04-1.52,0.03-2.29c0-0.36,0-0.71-0.01-1.07v-0.13c0-0.32,0-0.64,0-0.96h-2.68v-3.9h9.37
			c0.02,0.04,0.06,0.07,0.06,0.1c-0.01,1.46-0.02,2.91-0.03,4.37h0.03c-0.04,0.92,0,3.39-0.08,4.27c-0.24,2.53-1.44,4.46-3.81,5.48
			c-3.16,1.36-6.44,1.38-9.71,0.49c-2.92-0.79-4.7-2.7-5.11-5.73c-0.13-1-0.23-13.78-0.05-15.1c0.41-3.03,2.19-4.94,5.11-5.73
			c3.28-0.89,6.56-0.87,9.71,0.49c2.37,1.02,3.57,2.95,3.81,5.48c0.08,0.88,0.09,1.76,0.13,2.68h-6.83c0-0.54,0-1.07,0-1.6
			c-0.02-2.24-2-3.48-4.02-2.49c-1.13,0.55-1.38,1.59-1.39,2.71c-0.01,2.71-0.01,10.38-0.01,10.38"/>
		<path class="st0" d="M51.56,40.32c-1.34-7.25-2.68-14.5-4.02-21.75c-0.18-0.95-0.17-0.95-1.14-0.95c-1.66,0-3.32,0-4.98,0
			s-3.32,0-4.98,0c-0.97,0-0.96,0-1.14,0.95c-1.34,7.25-2.68,14.5-4.02,21.75c-0.24,1.3-0.47,2.59-0.71,3.92c2.44,0,4.82,0,7.25,0
			c1.2-7.99,2.41-15.97,3.61-23.94c1.2,7.97,2.4,15.95,3.61,23.94c2.43,0,4.8,0,7.25,0C52.04,42.91,51.8,41.62,51.56,40.32z"/>
	</g>
</g>
</svg>
