<?xml version="1.0" standalone="no"?><!DOCTYPE svg PUBLIC "-//W3C//DTD SVG 1.1//EN" "http://www.w3.org/Graphics/SVG/1.1/DTD/svg11.dtd"><svg t="1586262288063" class="icon" viewBox="0 0 1024 1024" version="1.1" xmlns="http://www.w3.org/2000/svg" p-id="3361" xmlns:xlink="http://www.w3.org/1999/xlink" width="200" height="200"><defs><style type="text/css"></style></defs><path d="M259.356 657.7l160.008-320.016 57.242 28.621-160.008 320.017zM384 768h256v64H384z" fill="#243154" p-id="3362"></path><path d="M512 416c-105.9 0-192-86.1-192-192S406.1 32 512 32s192 86.1 192 192-86.1 192-192 192z m0-320c-70.6 0-128 57.4-128 128s57.4 128 128 128 128-57.4 128-128S582.6 96 512 96zM224 992c-105.9 0-192-86.1-192-192s86.1-192 192-192 192 86.1 192 192-86.1 192-192 192z m0-320c-70.6 0-128 57.4-128 128s57.4 128 128 128 128-57.4 128-128-57.4-128-128-128zM800 992c-105.9 0-192-86.1-192-192s86.1-192 192-192 192 86.1 192 192-86.1 192-192 192z m0-320c-70.6 0-128 57.4-128 128s57.4 128 128 128 128-57.4 128-128-57.4-128-128-128z" fill="#243154" p-id="3363"></path></svg>