<?xml version="1.0" standalone="no"?><!DOCTYPE svg PUBLIC "-//W3C//DTD SVG 1.1//EN" "http://www.w3.org/Graphics/SVG/1.1/DTD/svg11.dtd"><svg t="1586261705671" class="icon" viewBox="0 0 1024 1024" version="1.1" xmlns="http://www.w3.org/2000/svg" p-id="2568" xmlns:xlink="http://www.w3.org/1999/xlink" width="200" height="200"><defs><style type="text/css"></style></defs><path d="M690.56 474.51c0-67.01-30.8-129.87-86.72-176.99-55.23-46.53-128.5-72.16-206.33-72.16-77.83 0-151.11 25.62-206.33 72.16-55.92 47.12-86.72 109.98-86.72 176.99 0 52.7 20.77 104.19 61.74 153.04 5.51 6.57 8.28 29.76-2.27 45.54-12.44 18.59-37.33 15.45-56.03 9.54-7.47-2.36-15.43 1.78-17.79 9.24s1.78 15.43 9.24 17.79c13.37 4.23 24.94 5.97 34.95 5.97 29.87 0 45.67-15.54 53.19-26.78 7.88-11.78 12.12-26.9 11.93-42.56-0.18-14.98-4.37-28.45-11.5-36.95-36.57-43.6-55.11-88.96-55.11-134.82 0-121.75 118.75-220.8 264.71-220.8s264.71 99.05 264.71 220.8c0 121.75-118.75 220.8-264.71 220.8-45.21 0-89.83-9.68-129.05-28.01-7.09-3.31-15.53-0.25-18.84 6.84-3.31 7.09-0.25 15.53 6.84 18.84 42.95 20.06 91.72 30.67 141.04 30.67 77.83 0 151.1-25.62 206.33-72.16 55.92-47.12 86.72-109.97 86.72-176.99zM753.38 773.39c-11.06 2.08-22.47 3.13-33.91 3.13-57.56 0-109.72-26.41-136.11-68.92-4.13-6.65-12.86-8.69-19.52-4.57-6.65 4.13-8.69 12.87-4.57 19.52 31.52 50.78 92.9 82.32 160.19 82.32 13.2 0 26.37-1.22 39.15-3.62 7.69-1.45 12.76-8.85 11.31-16.55-1.44-7.69-8.85-12.76-16.54-11.31zM849.81 785.91c-5.88-0.55-7.55-2.76-8.48-5.07-2.53-6.26 0.18-15.53 1.99-17.77 38.09-33.82 57.4-71.88 57.4-113.15 0-41.85-19.17-81.06-53.98-110.38-34.11-28.74-79.31-44.57-127.28-44.57-7.83 0-14.17 6.34-14.17 14.17s6.34 14.17 14.17 14.17c84.32 0 152.91 56.79 152.91 126.61 0 32.86-16.15 63.84-48.01 92.08-10.75 9.53-15.44 31.03-10.24 46.94 4.73 14.49 16.78 23.67 33.04 25.19 0.45 0.04 0.9 0.06 1.34 0.06 7.23 0 13.41-5.51 14.09-12.85 0.74-7.79-4.98-14.7-12.78-15.43z" p-id="2569"></path><path d="M312.39 421.3m-32.64 0a32.64 32.64 0 1 0 65.28 0 32.64 32.64 0 1 0-65.28 0Z" p-id="2570"></path><path d="M475.85 421.3m-32.64 0a32.64 32.64 0 1 0 65.28 0 32.64 32.64 0 1 0-65.28 0Z" p-id="2571"></path><path d="M657.8 649.92c0 11.83 9.59 21.42 21.42 21.42 11.83 0 21.42-9.59 21.42-21.42s-9.59-21.42-21.42-21.42c-11.83-0.01-21.42 9.58-21.42 21.42zM786.5 628.49c-11.83 0-21.42 9.59-21.42 21.42s9.59 21.42 21.42 21.42 21.42-9.59 21.42-21.42-9.59-21.42-21.42-21.42z" p-id="2572"></path></svg>