<?xml version="1.0" standalone="no"?><!DOCTYPE svg PUBLIC "-//W3C//DTD SVG 1.1//EN" "http://www.w3.org/Graphics/SVG/1.1/DTD/svg11.dtd"><svg t="1586417089279" class="icon" viewBox="0 0 1024 1024" version="1.1" xmlns="http://www.w3.org/2000/svg" p-id="7079" xmlns:xlink="http://www.w3.org/1999/xlink" width="200" height="200"><defs><style type="text/css"></style></defs><path d="M655.47 866.14a33.61 33.61 0 1 1-43.07-51.62l0.31-0.25c158.35-130.45 235.76-246.68 235.76-346.43 0-186.68-150.53-337.95-336.12-337.95s-336.13 151.27-336.13 338c0 121 113.88 265.79 345.76 430.12a33.62 33.62 0 0 1-38.88 54.85c-248-175.78-374.1-336-374.1-485 0-223.75 180.54-405.19 403.35-405.19s403.34 181.44 403.34 405.17c0 124.34-87.92 256.35-260.22 398.3zM512.35 622.87A156.86 156.86 0 1 1 669.2 466a156.86 156.86 0 0 1-156.85 156.87z m0-67.23A89.63 89.63 0 1 0 422.71 466a89.63 89.63 0 0 0 89.64 89.64z" p-id="7080"></path></svg>