<?xml version="1.0" standalone="no"?><!DOCTYPE svg PUBLIC "-//W3C//DTD SVG 1.1//EN" "http://www.w3.org/Graphics/SVG/1.1/DTD/svg11.dtd"><svg t="1586416680631" class="icon" viewBox="0 0 1024 1024" version="1.1" xmlns="http://www.w3.org/2000/svg" p-id="2611" xmlns:xlink="http://www.w3.org/1999/xlink" width="200" height="200"><defs><style type="text/css"></style></defs><path d="M636.766608 110.63475h274.245038v274.250154c0 12.981662 10.525728 23.50739 23.50739 23.50739 12.981662 0 23.50739-10.525728 23.50739-23.50739V63.620993H636.766608c-12.981662 0-23.50739 10.525728-23.50739 23.50739 0 12.981662 10.525728 23.506367 23.50739 23.506367zM88.266299 408.392294c12.981662 0 23.50739-10.525728 23.50739-23.50739V110.63475h274.250155c12.981662 0 23.50739-10.525728 23.50739-23.50739 0-12.981662-10.525728-23.50739-23.50739-23.50739H64.758909v321.263911c0 12.983709 10.525728 23.508413 23.50739 23.508413zM934.518013 612.121302c-12.981662 0-23.50739 10.525728-23.50739 23.50739v274.245038H636.766608c-12.981662 0-23.50739 10.525728-23.50739 23.50739 0 12.981662 10.525728 23.50739 23.50739 23.50739h321.258795V635.628692c0-12.981662-10.525728-23.50739-23.50739-23.50739zM386.023844 909.87373H111.772666V635.628692c0-12.981662-10.525728-23.50739-23.50739-23.50739S64.758909 622.647029 64.758909 635.628692v321.258794h321.263912c12.981662 0 23.50739-10.525728 23.50739-23.50739 0-12.981662-10.524704-23.506367-23.506367-23.506366zM936.01818 486.74685h-847.225901c-12.981662 0-23.50739 10.525728-23.50739 23.50739s10.525728 23.50739 23.50739 23.50739h847.225901c12.981662 0 23.50739-10.525728 23.50739-23.50739s-10.525728-23.50739-23.50739-23.50739z" p-id="2612"></path></svg>